<svg xmlns="http://www.w3.org/2000/svg" version="1.1" xmlns:xlink="http://www.w3.org/1999/xlink" width="2000" height="91" viewBox="0 0 2000 91"><svg xml:space="preserve" width="2000" height="91" data-version="2" data-id="lg_bNMoBQHREeTFEHgKgt" viewBox="0 0 533 91" x="0" y="0"><rect width="100%" height="100%" fill="transparent"></rect><g transform="translate(50.83 45.5)"><linearGradient id="a" x1="0" x2="1" y1="0" y2="0" gradientUnits="objectBoundingBox"><stop offset="0%" stop-color="#ff6cab"></stop><stop offset="100%" stop-color="#7366ff"></stop></linearGradient><rect width="91.25" height="89.24" x="-45.62" y="-44.62" fill="url(#a)" rx="13" ry="13"></rect></g><path fill="#fff" d="M133.626 46.597h-23.15q-1.05 0-1.79-.74t-.74-1.84V6.227q0-1.1.74-1.84t1.79-.74q1.1 0 1.84.74t.74 1.84v35.31h20.57q1.05 0 1.82.72.77.71.77 1.81 0 1.05-.77 1.79t-1.82.74" paint-order="stroke"></path><rect width="28.27" height="42.95" x="-14.13" y="-21.48" fill="none" rx="0" ry="0" transform="translate(122.58 25.62)"></rect><path fill="#fff" d="M141.106 46.597q-1.43 0-2.14-1.21-.72-1.21-.11-2.53l15.73-37.45q.71-1.76 2.42-1.76 1.81 0 2.47 1.76l15.79 37.56q.55 1.32-.2 2.48-.74 1.15-2.17 1.15-.71 0-1.37-.41-.66-.41-.99-1.18l-14.25-34.98h1.6l-14.36 34.98q-.33.82-.99 1.21-.66.38-1.43.38m29.04-9.73h-25.85l2.04-4.35h21.83z" paint-order="stroke"></path><rect width="37.24" height="42.95" x="-18.62" y="-21.48" fill="none" rx="0" ry="0" transform="translate(157.53 25.62)"></rect><path fill="#fff" d="M199.406 47.477q-5.17 0-9.16-1.95-3.98-1.95-6.24-5.39-2.25-3.44-2.25-7.84V6.227q0-1.1.74-1.84t1.84-.74q1.16 0 1.87.74.72.74.72 1.84v26.07q0 3.08 1.59 5.42 1.6 2.34 4.43 3.69 2.83 1.34 6.46 1.34 3.52 0 6.27-1.34 2.75-1.35 4.32-3.69 1.57-2.34 1.57-5.42V6.227q0-1.1.74-1.84t1.84-.74q1.16 0 1.84.74.69.74.69 1.84v26.07q0 4.4-2.2 7.84-2.2 3.44-6.1 5.39-3.91 1.95-8.97 1.95" paint-order="stroke"></path><rect width="34.92" height="43.83" x="-17.46" y="-21.91" fill="none" rx="0" ry="0" transform="translate(199.72 26.06)"></rect><path fill="#fff" d="M230.206 46.597q-1.1 0-1.81-.74-.72-.74-.72-1.84V6.227q0-1.15.72-1.87.71-.71 1.81-.71 1.21 0 2.04.93l24.86 32.95v-31.3q0-1.15.74-1.87.74-.71 1.84-.71t1.82.71q.71.72.71 1.87v37.79q0 1.1-.71 1.84-.72.74-1.82.74-.55 0-1.1-.22t-.88-.66l-24.91-32.94v31.24q0 1.1-.72 1.84-.71.74-1.87.74" paint-order="stroke"></path><rect width="34.54" height="42.95" x="-17.27" y="-21.48" fill="none" rx="0" ry="0" transform="translate(245.45 25.62)"></rect><path fill="#fff" d="M292.466 47.147q-4.45 0-8.33-1.67-3.88-1.68-6.77-4.71-2.88-3.02-4.53-7.04-1.65-4.01-1.65-8.63 0-4.57 1.62-8.55 1.62-3.99 4.54-7.02 2.91-3.02 6.76-4.73 3.85-1.7 8.36-1.7 4.13 0 7.26 1.13 3.14 1.12 6.22 3.65.44.33.63.75.19.41.16.82-.02.41-.19.8-.05.82-.69 1.32-.63.49-1.48.52-.85.03-1.68-.58-2.09-1.81-4.4-2.75-2.31-.93-5.83-.93-3.35 0-6.3 1.37-2.94 1.38-5.19 3.74-2.26 2.37-3.52 5.5-1.27 3.14-1.27 6.66 0 3.63 1.27 6.74 1.26 3.1 3.52 5.5 2.25 2.39 5.19 3.71 2.95 1.32 6.3 1.32 2.92 0 5.5-.96 2.59-.97 4.9-2.73.88-.66 1.76-.57.88.08 1.48.71.61.63.61 1.73 0 .5-.17.97-.16.46-.6.85-2.86 2.47-6.3 3.63-3.44 1.15-7.18 1.15" paint-order="stroke"></path><rect width="35.56" height="44.05" x="-17.78" y="-22.02" fill="none" rx="0" ry="0" transform="translate(289.47 25.62)"></rect><path fill="#fff" d="M318.376 46.597q-1.1 0-1.85-.74-.74-.74-.74-1.84V6.227q0-1.15.74-1.87.75-.71 1.85-.71 1.15 0 1.87.71.71.72.71 1.87v16.34h26.02V6.227q0-1.15.74-1.87.74-.71 1.84-.71 1.16 0 1.87.71.72.72.72 1.87v37.79q0 1.1-.72 1.84-.71.74-1.87.74-1.1 0-1.84-.74t-.74-1.84v-16.89h-26.02v16.89q0 1.1-.71 1.84-.72.74-1.87.74" paint-order="stroke"></path><rect width="36.36" height="42.95" x="-18.18" y="-21.48" fill="none" rx="0" ry="0" transform="translate(334.47 25.62)"></rect><path fill="#ff3cac" d="M388.386 46.597q-.88 0-1.57-.55-.68-.55-1.01-1.54l-11.11-37.23q-.5-1.65.08-2.64.58-.99 1.95-.99.83 0 1.51.47.69.46 1.02 1.51l9.79 34.26h-1.21l9.19-33.71q.22-.77.9-1.24.69-.47 1.57-.47.77 0 1.51.42.75.41.91 1.29l9.24 33.71h-1.15l9.9-34.54q.49-1.7 2.53-1.7 1.37 0 1.81 1.07.44 1.07.06 2.56l-11.11 37.18q-.33.99-1.02 1.57-.69.57-1.57.57-.93 0-1.62-.6-.69-.61-.96-1.49l-9.13-34.48h1.32l-9.19 34.43q-.33.99-1.02 1.57-.68.57-1.62.57" paint-order="stroke"></path><rect width="50.25" height="42.95" x="-25.13" y="-21.48" fill="none" rx="0" ry="0" transform="translate(399.96 25.62)"></rect><path fill="#ff3cac" d="M458.676 46.597h-25.24q-1.1 0-1.85-.74-.74-.74-.74-1.84V6.227q0-1.15.74-1.87.75-.71 1.85-.71h25.24q1.1 0 1.82.69.71.68.71 1.78 0 .99-.71 1.68-.72.69-1.82.69h-22.66v14.08h16.34q1.15 0 1.84.69.69.68.69 1.73 0 1.04-.69 1.73t-1.84.69h-16.34v14.35h22.66q1.1 0 1.82.69.71.69.71 1.68 0 1.1-.71 1.79-.72.68-1.82.68" paint-order="stroke"></path><rect width="30.36" height="42.95" x="-15.18" y="-21.48" fill="none" rx="0" ry="0" transform="translate(446.53 25.62)"></rect><path fill="#ff3cac" d="M486.066 46.597h-14.19q-1.15 0-1.92-.74t-.77-1.84V6.227q0-1.15.74-1.87.74-.71 1.84-.71h13.26q3.52 0 6.29 1.43 2.78 1.43 4.38 3.96 1.59 2.53 1.59 5.83 0 2.8-1.51 5.03-1.51 2.23-4.04 3.44 3.63.93 5.85 3.57 2.23 2.64 2.23 6.82 0 3.8-1.76 6.69-1.76 2.88-4.87 4.53-3.1 1.65-7.12 1.65m-11.71-20.35v15.51h11.71q2.59 0 4.54-.93 1.95-.94 3.08-2.72 1.13-1.79 1.13-4.38 0-2.42-1.13-4.07-1.13-1.65-3.08-2.53-1.95-.88-4.54-.88zm0-17.76v12.92h10.67q3.19 0 5.25-1.67 2.06-1.68 2.06-4.87 0-3.19-2.06-4.79-2.06-1.59-5.25-1.59z" paint-order="stroke"></path><rect width="30.63" height="42.95" x="-15.31" y="-21.48" fill="none" rx="0" ry="0" transform="translate(485 25.62)"></rect><path fill="#eaeaea" d="M105.636 80.617q-.39 0-.64-.25-.25-.26-.25-.65v-16.17q0-.39.25-.64t.64-.25q.39 0 .65.25.25.25.25.64v16.17q0 .39-.25.65-.26.25-.65.25" paint-order="stroke"></path><rect width="1.79" height="17.96" x="-.9" y="-8.98" fill="none" rx="0" ry="0" transform="translate(106.14 72.14)"></rect><path fill="#eaeaea" d="M116.446 80.737q-1.81 0-3.22-.82-1.4-.82-2.19-2.27-.8-1.45-.8-3.31 0-1.88.83-3.33.83-1.45 2.28-2.27 1.45-.82 3.29-.82 1.86 0 3.3.82 1.43.82 2.25 2.27.82 1.45.84 3.33l-1.03.55q0 1.71-.72 3.03-.71 1.32-1.96 2.07-1.26.75-2.87.75m.23 4.85q-1.81 0-3.19-.68t-2.28-1.85q-.25-.28-.22-.6.03-.32.33-.53.3-.21.67-.14.37.07.58.35.66.83 1.71 1.33 1.05.51 2.43.51 1.28 0 2.32-.62 1.03-.62 1.64-1.75.61-1.13.61-2.65v-3.49l.67-1.34 1.08.21v4.69q0 1.87-.83 3.35t-2.25 2.35q-1.43.86-3.27.86m-.04-6.46q1.35 0 2.4-.61 1.05-.61 1.64-1.69.6-1.09.6-2.49 0-1.4-.6-2.49-.59-1.1-1.64-1.71-1.05-.61-2.4-.61-1.36 0-2.42.61-1.06.61-1.65 1.71-.6 1.09-.6 2.49 0 1.4.6 2.49.59 1.08 1.65 1.69 1.06.61 2.42.61" paint-order="stroke"></path><rect width="12.79" height="17.67" x="-6.39" y="-8.84" fill="none" rx="0" ry="0" transform="translate(117.13 77.25)"></rect><path fill="#eaeaea" d="M137.266 80.617q-.39 0-.65-.25-.25-.26-.25-.62v-5.98q0-1.43-.54-2.35-.54-.92-1.47-1.38-.93-.46-2.11-.46-1.12 0-2.03.44-.91.43-1.44 1.19-.53.76-.53 1.73h-1.26q.04-1.45.78-2.59.73-1.14 1.95-1.79 1.22-.66 2.72-.66 1.63 0 2.92.68t2.03 1.99q.75 1.31.75 3.2v5.98q0 .36-.25.62-.25.25-.62.25m-9.89 0q-.42 0-.66-.24-.24-.24-.24-.63v-10.81q0-.42.24-.66.24-.24.66-.24.39 0 .63.24t.24.66v10.81q0 .39-.24.63t-.63.24" paint-order="stroke"></path><rect width="11.66" height="12.72" x="-5.83" y="-6.36" fill="none" rx="0" ry="0" transform="translate(132.8 74.76)"></rect><path fill="#eaeaea" d="M143.316 80.617q-.42 0-.66-.24-.24-.24-.24-.66v-10.78q0-.42.24-.66.24-.24.66-.24.39 0 .63.24t.24.66v10.78q0 .42-.24.66-.24.24-.63.24m-.03-14.97q-.5 0-.87-.37t-.37-.9q0-.57.38-.91.38-.33.89-.33.48 0 .86.33.38.34.38.91 0 .53-.37.9t-.9.37" paint-order="stroke"></path><rect width="2.51" height="17.48" x="-1.25" y="-8.74" fill="none" rx="0" ry="0" transform="translate(143.8 72.38)"></rect><path fill="#eaeaea" d="M154.096 80.617h-.48q-1.22 0-2.17-.57-.96-.58-1.51-1.58t-.55-2.29v-11.25q0-.39.24-.64t.63-.25q.39 0 .65.25.25.25.25.64v11.25q0 1.17.69 1.92t1.77.75h.62q.37 0 .6.25.23.26.23.65t-.28.63q-.27.24-.69.24m-.34-10.58h-5.87q-.34 0-.57-.22-.23-.22-.23-.54 0-.34.23-.56.23-.22.57-.22h5.87q.34 0 .57.22.23.22.23.56 0 .32-.23.54-.23.22-.57.22" paint-order="stroke"></path><rect width="7.98" height="16.58" x="-3.99" y="-8.29" fill="none" rx="0" ry="0" transform="translate(151.58 72.83)"></rect><path fill="#eaeaea" d="M163.646 80.737q-1.86 0-3.3-.82-1.44-.82-2.26-2.27-.81-1.45-.81-3.31 0-1.88.77-3.32t2.13-2.27q1.35-.83 3.12-.83 1.75 0 3.05.8 1.3.79 2.01 2.19.72 1.41.72 3.2 0 .37-.23.59-.23.22-.6.22h-9.78v-1.48h9.96l-.99.72q.03-1.34-.48-2.39-.51-1.06-1.44-1.66-.93-.6-2.22-.6-1.31 0-2.3.62-.99.62-1.53 1.72-.54 1.09-.54 2.49 0 1.4.61 2.49.61 1.08 1.67 1.7 1.06.62 2.44.62.83 0 1.67-.29t1.34-.72q.25-.21.58-.22.32-.01.55.17.3.28.31.6.01.32-.27.55-.75.64-1.93 1.07-1.17.43-2.25.43" paint-order="stroke"></path><rect width="11.8" height="12.82" x="-5.9" y="-6.41" fill="none" rx="0" ry="0" transform="translate(163.68 74.83)"></rect><path fill="#eaeaea" d="M184.186 80.617q-.37 0-.64-.26-.26-.27-.26-.64v-5.75l-6.26-9.91q-.23-.34-.17-.67.06-.32.29-.53.23-.2.57-.2.28 0 .45.11.18.12.31.32l6.21 10.01h-.96l6.18-9.96q.17-.25.36-.37.2-.11.47-.11.32 0 .54.22.22.21.26.54.03.32-.18.64l-6.28 9.91v5.75q0 .37-.26.64-.26.26-.63.26" paint-order="stroke"></path><rect width="14.73" height="17.96" x="-7.36" y="-8.98" fill="none" rx="0" ry="0" transform="translate(184.69 72.14)"></rect><path fill="#eaeaea" d="M199.436 80.737q-1.84 0-3.29-.83t-2.28-2.28q-.83-1.45-.83-3.29 0-1.86.83-3.31t2.28-2.28q1.45-.83 3.29-.83t3.27.83q1.44.83 2.27 2.28.83 1.45.85 3.31 0 1.84-.84 3.29t-2.28 2.28q-1.43.83-3.27.83m0-1.61q1.33 0 2.39-.63 1.06-.62 1.65-1.7.6-1.08.6-2.46t-.6-2.47q-.59-1.09-1.65-1.71-1.06-.63-2.39-.63-1.34 0-2.4.63-1.05.62-1.66 1.71-.61 1.09-.61 2.47 0 1.38.61 2.46t1.66 1.7q1.06.63 2.4.63" paint-order="stroke"></path><rect width="12.79" height="12.82" x="-6.39" y="-6.41" fill="none" rx="0" ry="0" transform="translate(199.93 74.83)"></rect><path fill="#eaeaea" d="M214.746 80.757q-1.63 0-2.92-.68-1.28-.68-2.03-1.99-.75-1.31-.75-3.2v-5.98q0-.36.25-.62.26-.25.62-.25.4 0 .65.25.25.26.25.62v5.98q0 1.43.54 2.35.54.92 1.47 1.38.94.46 2.11.46 1.13 0 2.03-.44.91-.43 1.44-1.19.53-.76.53-1.73h1.27q-.07 1.45-.8 2.59-.72 1.14-1.94 1.79-1.22.66-2.72.66m5.06-.14q-.39 0-.63-.24t-.24-.66v-10.81q0-.39.24-.63t.63-.24q.4 0 .65.24t.25.63v10.81q0 .42-.25.66-.25.24-.65.24" paint-order="stroke"></path><rect width="11.66" height="12.72" x="-5.83" y="-6.36" fill="none" rx="0" ry="0" transform="translate(215.38 74.9)"></rect><path fill="#eaeaea" d="M226.596 72.867h-1.01q.07-1.43.74-2.55.68-1.13 1.78-1.77 1.09-.65 2.42-.65 1.06 0 1.64.3.57.3.43.87-.09.35-.31.46-.22.12-.53.1-.31-.03-.7-.05-1.29-.11-2.29.27-1 .37-1.58 1.16-.59.78-.59 1.86m-.87 7.75q-.42 0-.65-.23-.23-.23-.23-.64v-10.84q0-.41.23-.64.23-.23.65-.23.41 0 .64.23.23.23.23.64v10.84q0 .41-.23.64-.23.23-.64.23" paint-order="stroke"></path><rect width="7.83" height="12.72" x="-3.91" y="-6.36" fill="none" rx="0" ry="0" transform="translate(229.26 74.76)"></rect><path fill="#eaeaea" d="M247.866 80.847q-1.47 0-2.72-.42-1.25-.43-2.17-1.21-.92-.78-1.41-1.82-.18-.37-.01-.68.17-.31.59-.42.32-.1.63.07.31.16.47.48.35.67 1.01 1.19.67.53 1.59.82.92.29 2.02.29 1.22 0 2.17-.4.94-.41 1.48-1.18t.54-1.87q0-1.4-1.03-2.42-1.04-1.01-3.25-1.28-2.69-.33-4.21-1.67-1.51-1.35-1.51-3.3 0-1.41.74-2.44.75-1.04 2.06-1.6t3.01-.56q1.27 0 2.3.4 1.04.4 1.81 1.06.77.65 1.25 1.44.23.36.15.71-.08.34-.4.53-.34.16-.7.04-.36-.11-.54-.43-.35-.53-.86-1-.52-.48-1.26-.75-.73-.28-1.77-.3-1.82 0-2.92.77-1.1.77-1.1 2.24 0 .78.41 1.44.41.66 1.37 1.13.95.47 2.56.7 2.88.41 4.27 1.76 1.39 1.34 1.39 3.51 0 1.24-.45 2.2-.45.97-1.26 1.63-.82.65-1.91 1-1.09.34-2.34.34" paint-order="stroke"></path><rect width="12.4" height="18.42" x="-6.2" y="-9.21" fill="none" rx="0" ry="0" transform="translate(248.13 72.14)"></rect><path fill="#eaeaea" d="M258.616 80.617q-.42 0-.66-.24-.24-.24-.24-.66v-10.78q0-.42.24-.66.24-.24.66-.24.39 0 .63.24t.24.66v10.78q0 .42-.24.66-.24.24-.63.24m-.03-14.97q-.5 0-.87-.37t-.37-.9q0-.57.38-.91.38-.33.89-.33.48 0 .86.33.38.34.38.91 0 .53-.37.9t-.9.37" paint-order="stroke"></path><rect width="2.51" height="17.48" x="-1.25" y="-8.74" fill="none" rx="0" ry="0" transform="translate(259.1 72.38)"></rect><path fill="#eaeaea" d="M269.396 80.617h-.48q-1.22 0-2.17-.57-.96-.58-1.51-1.58t-.55-2.29v-11.25q0-.39.24-.64t.63-.25q.39 0 .65.25.25.25.25.64v11.25q0 1.17.69 1.92t1.77.75h.62q.37 0 .6.25.23.26.23.65t-.28.63q-.27.24-.69.24m-.34-10.58h-5.87q-.34 0-.57-.22-.23-.22-.23-.54 0-.34.23-.56.23-.22.57-.22h5.87q.34 0 .57.22.23.22.23.56 0 .32-.23.54-.23.22-.57.22" paint-order="stroke"></path><rect width="7.98" height="16.58" x="-3.99" y="-8.29" fill="none" rx="0" ry="0" transform="translate(266.88 72.83)"></rect><path fill="#eaeaea" d="M278.946 80.737q-1.87 0-3.3-.82-1.44-.82-2.26-2.27-.81-1.45-.81-3.31 0-1.88.77-3.32t2.12-2.27q1.36-.83 3.13-.83 1.75 0 3.05.8 1.3.79 2.01 2.19.72 1.41.72 3.2 0 .37-.23.59-.23.22-.6.22h-9.78v-1.48h9.96l-.99.72q.03-1.34-.48-2.39-.51-1.06-1.44-1.66-.93-.6-2.22-.6-1.31 0-2.3.62-.99.62-1.53 1.72-.54 1.09-.54 2.49 0 1.4.61 2.49.61 1.08 1.67 1.7 1.06.62 2.44.62.83 0 1.66-.29.84-.29 1.35-.72.25-.21.58-.22.32-.01.55.17.3.28.31.6.01.32-.27.55-.76.64-1.93 1.07-1.17.43-2.25.43" paint-order="stroke"></path><rect width="11.8" height="12.82" x="-5.9" y="-6.41" fill="none" rx="0" ry="0" transform="translate(278.98 74.83)"></rect><path fill="#eaeaea" d="M287.156 84.347q-.23 0-.36-.13-.12-.13-.12-.33 0-.35.2-.64.21-.28.43-.61.22-.32.22-.78 0-.41-.16-.69-.17-.27-.38-.49-.22-.22-.38-.48-.16-.27-.16-.66 0-.58.37-.92.38-.35.96-.35.69 0 1.13.55.43.54.43 1.5 0 .65-.18 1.36-.18.71-.51 1.32-.32.61-.71.98-.39.37-.78.37" paint-order="stroke"></path><rect width="2.89" height="6.08" x="-1.45" y="-3.04" fill="none" rx="0" ry="0" transform="translate(288.4 81.8)"></rect><path fill="#eaeaea" d="M311.216 80.617h-10.79q-.39 0-.64-.25-.26-.26-.26-.65v-16.17q0-.39.26-.64.25-.25.64-.25h10.79q.36 0 .63.24.26.24.26.63 0 .35-.26.6-.27.25-.63.25h-9.89v6.35h7.2q.39 0 .64.25.25.26.25.62 0 .37-.25.63-.25.25-.64.25h-7.2v6.42h9.89q.36 0 .63.25.26.25.26.6 0 .39-.26.63-.27.24-.63.24" paint-order="stroke"></path><rect width="12.58" height="17.96" x="-6.29" y="-8.98" fill="none" rx="0" ry="0" transform="translate(306.32 72.14)"></rect><path fill="#eaeaea" d="M318.226 80.617h-.3q-.92 0-1.64-.51-.73-.5-1.13-1.4-.4-.9-.4-2.07v-13.11q0-.39.24-.63t.63-.24q.39 0 .63.24.25.24.25.63v13.11q0 .99.4 1.61.4.62 1.02.62h.58q.34 0 .55.24.21.25.21.64t-.29.63q-.29.24-.75.24" paint-order="stroke"></path><rect width="4.51" height="17.96" x="-2.25" y="-8.98" fill="none" rx="0" ry="0" transform="translate(317.51 72.14)"></rect><path fill="#eaeaea" d="M327.406 80.737q-1.86 0-3.3-.82-1.44-.82-2.26-2.27-.81-1.45-.81-3.31 0-1.88.77-3.32t2.13-2.27q1.35-.83 3.12-.83 1.75 0 3.05.8 1.3.79 2.01 2.19.72 1.41.72 3.2 0 .37-.23.59-.23.22-.6.22h-9.78v-1.48h9.96l-.99.72q.03-1.34-.48-2.39-.51-1.06-1.44-1.66-.93-.6-2.22-.6-1.31 0-2.3.62-.99.62-1.53 1.72-.54 1.09-.54 2.49 0 1.4.61 2.49.61 1.08 1.67 1.7 1.06.62 2.44.62.83 0 1.67-.29t1.34-.72q.25-.21.58-.22.32-.01.55.17.3.28.31.6.01.32-.27.55-.75.64-1.93 1.07-1.17.43-2.25.43" paint-order="stroke"></path><rect width="11.8" height="12.82" x="-5.9" y="-6.41" fill="none" rx="0" ry="0" transform="translate(327.44 74.83)"></rect><path fill="#eaeaea" d="M340.126 80.617q-.55 0-.83-.6l-5.11-10.83q-.13-.3-.02-.6.12-.3.46-.46.32-.16.62-.04.3.11.46.41l4.9 10.6h-.94l4.83-10.6q.14-.32.47-.43.33-.1.65.04.33.16.44.47.12.31-.02.59l-5.04 10.85q-.27.6-.87.6" paint-order="stroke"></path><rect width="12.06" height="12.62" x="-6.03" y="-6.31" fill="none" rx="0" ry="0" transform="translate(340.62 74.8)"></rect><path fill="#eaeaea" d="M354.086 80.737q-1.77 0-3.18-.84-1.4-.84-2.22-2.29-.81-1.45-.81-3.27 0-1.84.84-3.29t2.29-2.29q1.45-.84 3.26-.84 1.82 0 3.26.84 1.43.84 2.27 2.29.84 1.45.87 3.29l-.72.55q0 1.66-.77 2.98t-2.09 2.1q-1.32.77-3 .77m.18-1.61q1.34 0 2.38-.63 1.05-.62 1.66-1.71.61-1.09.61-2.45 0-1.38-.61-2.46t-1.66-1.71q-1.04-.64-2.38-.64-1.31 0-2.37.64-1.05.63-1.68 1.71-.62 1.08-.62 2.46 0 1.36.62 2.45.63 1.09 1.68 1.71 1.06.63 2.37.63m5.5 1.49q-.39 0-.64-.24-.26-.24-.26-.63v-3.94l.44-1.81 1.36.34v5.41q0 .39-.26.63-.25.24-.64.24" paint-order="stroke"></path><rect width="12.79" height="12.82" x="-6.39" y="-6.41" fill="none" rx="0" ry="0" transform="translate(354.77 74.83)"></rect><path fill="#eaeaea" d="M369.516 80.617h-.48q-1.22 0-2.18-.57-.95-.58-1.5-1.58t-.55-2.29v-11.25q0-.39.24-.64t.63-.25q.39 0 .64.25.26.25.26.64v11.25q0 1.17.69 1.92t1.77.75h.62q.37 0 .6.25.23.26.23.65t-.28.63q-.27.24-.69.24m-.34-10.58h-5.87q-.34 0-.57-.22-.23-.22-.23-.54 0-.34.23-.56.23-.22.57-.22h5.87q.34 0 .57.22.23.22.23.56 0 .32-.23.54-.23.22-.57.22" paint-order="stroke"></path><rect width="7.98" height="16.58" x="-3.99" y="-8.29" fill="none" rx="0" ry="0" transform="translate(367 72.83)"></rect><path fill="#eaeaea" d="M379.066 80.737q-1.87 0-3.3-.82-1.44-.82-2.26-2.27-.81-1.45-.81-3.31 0-1.88.77-3.32t2.12-2.27q1.36-.83 3.13-.83 1.75 0 3.05.8 1.3.79 2.01 2.19.71 1.41.71 3.2 0 .37-.23.59-.23.22-.59.22h-9.78v-1.48h9.96l-.99.72q.02-1.34-.48-2.39-.51-1.06-1.44-1.66-.93-.6-2.22-.6-1.31 0-2.3.62-.99.62-1.53 1.72-.54 1.09-.54 2.49 0 1.4.61 2.49.61 1.08 1.67 1.7 1.06.62 2.44.62.82 0 1.66-.29t1.35-.72q.25-.21.57-.22.33-.01.56.17.3.28.31.6.01.32-.27.55-.76.64-1.93 1.07-1.17.43-2.25.43" paint-order="stroke"></path><rect width="11.79" height="12.82" x="-5.89" y="-6.41" fill="none" rx="0" ry="0" transform="translate(379.1 74.83)"></rect><path fill="#eaeaea" d="M399.606 80.617q-.37 0-.64-.26-.26-.27-.26-.64v-5.75l-6.26-9.91q-.23-.34-.17-.67.06-.32.29-.53.23-.2.57-.2.28 0 .45.11.17.12.31.32l6.21 10.01h-.96l6.18-9.96q.16-.25.36-.37.19-.11.47-.11.32 0 .54.22.22.21.25.54.04.32-.17.64l-6.28 9.91v5.75q0 .37-.26.64-.27.26-.63.26" paint-order="stroke"></path><rect width="14.72" height="17.96" x="-7.36" y="-8.98" fill="none" rx="0" ry="0" transform="translate(400.1 72.14)"></rect><path fill="#eaeaea" d="M414.846 80.737q-1.84 0-3.28-.83-1.45-.83-2.28-2.28-.83-1.45-.83-3.29 0-1.86.83-3.31t2.28-2.28q1.44-.83 3.28-.83 1.84 0 3.28.83 1.44.83 2.27 2.28.83 1.45.85 3.31 0 1.84-.84 3.29t-2.28 2.28q-1.44.83-3.28.83m0-1.61q1.34 0 2.4-.63 1.05-.62 1.65-1.7.6-1.08.6-2.46t-.6-2.47q-.6-1.09-1.65-1.71-1.06-.63-2.4-.63-1.33 0-2.39.63-1.06.62-1.67 1.71-.6 1.09-.6 2.47 0 1.38.6 2.46.61 1.08 1.67 1.7 1.06.63 2.39.63" paint-order="stroke"></path><rect width="12.79" height="12.82" x="-6.39" y="-6.41" fill="none" rx="0" ry="0" transform="translate(415.35 74.83)"></rect><path fill="#eaeaea" d="M430.166 80.757q-1.63 0-2.92-.68t-2.03-1.99q-.75-1.31-.75-3.2v-5.98q0-.36.25-.62.25-.25.62-.25.39 0 .65.25.25.26.25.62v5.98q0 1.43.54 2.35.54.92 1.47 1.38.93.46 2.11.46 1.12 0 2.03-.44.91-.43 1.44-1.19.53-.76.53-1.73h1.26q-.07 1.45-.79 2.59t-1.94 1.79q-1.22.66-2.72.66m5.06-.14q-.39 0-.63-.24t-.24-.66v-10.81q0-.39.24-.63t.63-.24q.39 0 .65.24.25.24.25.63v10.81q0 .42-.25.66-.26.24-.65.24" paint-order="stroke"></path><rect width="11.66" height="12.72" x="-5.83" y="-6.36" fill="none" rx="0" ry="0" transform="translate(430.8 74.9)"></rect><path fill="#eaeaea" d="M442.016 72.867h-1.01q.06-1.43.74-2.55.68-1.13 1.77-1.77 1.1-.65 2.43-.65 1.06 0 1.63.3.58.3.44.87-.09.35-.31.46-.22.12-.53.1-.31-.03-.7-.05-1.29-.11-2.29.27-1 .37-1.59 1.16-.58.78-.58 1.86m-.88 7.75q-.41 0-.64-.23-.23-.23-.23-.64v-10.84q0-.41.23-.64.23-.23.64-.23.42 0 .65.23.23.23.23.64v10.84q0 .41-.23.64-.23.23-.65.23" paint-order="stroke"></path><rect width="7.83" height="12.72" x="-3.91" y="-6.36" fill="none" rx="0" ry="0" transform="translate(444.68 74.76)"></rect><path fill="#eaeaea" d="M458.666 80.617q-.39 0-.64-.25-.26-.26-.26-.65v-16.17q0-.39.26-.64.25-.25.64-.25h4.3q1.68 0 2.99.7 1.31.7 2.06 1.95.75 1.26.75 2.89 0 1.56-.75 2.78-.75 1.22-2.06 1.91t-2.99.69h-3.4v6.14q0 .39-.26.65-.25.25-.64.25m9.61 0q-.3 0-.47-.11-.17-.12-.31-.35l-4.41-7.04 1.79-.46 4.12 6.58q.34.55.12.97-.22.41-.84.41m-8.71-16.24v7.48h3.4q1.17 0 2.08-.47.91-.48 1.44-1.3.53-.83.53-1.89 0-1.13-.53-1.99-.53-.86-1.44-1.34-.91-.49-2.08-.49z" paint-order="stroke"></path><rect width="11.5" height="17.96" x="-5.75" y="-8.98" fill="none" rx="0" ry="0" transform="translate(464.02 72.14)"></rect><path fill="#eaeaea" d="M477.456 80.737q-1.86 0-3.3-.82-1.44-.82-2.25-2.27-.82-1.45-.82-3.31 0-1.88.77-3.32t2.13-2.27q1.35-.83 3.13-.83 1.74 0 3.04.8 1.3.79 2.02 2.19.71 1.41.71 3.2 0 .37-.23.59-.23.22-.6.22h-9.77v-1.48h9.95l-.98.72q.02-1.34-.49-2.39-.5-1.06-1.44-1.66-.93-.6-2.21-.6-1.32 0-2.3.62-.99.62-1.53 1.72-.54 1.09-.54 2.49 0 1.4.6 2.49.61 1.08 1.67 1.7 1.06.62 2.44.62.83 0 1.67-.29t1.34-.72q.26-.21.58-.22.32-.01.55.17.3.28.31.6.01.32-.26.55-.76.64-1.94 1.07-1.17.43-2.25.43" paint-order="stroke"></path><rect width="11.8" height="12.82" x="-5.9" y="-6.41" fill="none" rx="0" ry="0" transform="translate(477.49 74.83)"></rect><path fill="#eaeaea" d="M491.416 80.737q-1.77 0-3.17-.84-1.41-.84-2.22-2.29-.82-1.45-.82-3.27 0-1.84.84-3.29t2.29-2.29q1.45-.84 3.27-.84 1.81 0 3.25.84t2.28 2.29q.84 1.45.86 3.29l-.71.55q0 1.66-.77 2.98t-2.1 2.1q-1.32.77-3 .77m.19-1.61q1.33 0 2.38-.63 1.04-.62 1.65-1.71.61-1.09.61-2.45 0-1.38-.61-2.46t-1.65-1.71q-1.05-.64-2.38-.64-1.32 0-2.37.64-1.06.63-1.68 1.71-.62 1.08-.62 2.46 0 1.36.62 2.45t1.68 1.71q1.05.63 2.37.63m5.49 1.49q-.39 0-.64-.24t-.25-.63v-3.94l.43-1.81 1.36.34v5.41q0 .39-.25.63-.26.24-.65.24" paint-order="stroke"></path><rect width="12.79" height="12.82" x="-6.39" y="-6.41" fill="none" rx="0" ry="0" transform="translate(492.1 74.83)"></rect><path fill="#eaeaea" d="M507.056 80.737q-1.82 0-3.23-.84t-2.23-2.29q-.82-1.45-.82-3.27 0-1.84.78-3.29.79-1.45 2.14-2.29 1.36-.84 3.13-.84 1.4 0 2.59.56 1.18.55 2.08 1.65.25.28.18.59-.06.31-.39.54-.25.18-.56.13-.31-.06-.54-.34-1.33-1.52-3.36-1.52-1.29 0-2.26.63-.98.62-1.52 1.7t-.54 2.48q0 1.38.57 2.46.58 1.08 1.61 1.7 1.04.63 2.37.63.9 0 1.65-.25.74-.24 1.32-.74.27-.23.57-.26.3-.02.56.19.27.25.31.57.03.32-.22.55-1.68 1.55-4.19 1.55" paint-order="stroke"></path><rect width="10.94" height="12.82" x="-5.47" y="-6.41" fill="none" rx="0" ry="0" transform="translate(506.75 74.83)"></rect><path fill="#eaeaea" d="M516.026 75.487q-.41 0-.65-.25-.25-.25-.25-.65v-11.04q0-.41.25-.65.24-.24.65-.24.39 0 .63.24.25.24.25.65v11.04q0 .4-.25.65-.24.25-.63.25m9.89 5.13q-.39 0-.64-.25-.26-.26-.26-.62v-5.98q0-1.43-.54-2.35-.54-.92-1.47-1.38-.93-.46-2.1-.46-1.13 0-2.04.44-.91.43-1.44 1.19-.52.76-.52 1.73h-1.27q.05-1.45.78-2.59.74-1.14 1.96-1.79 1.22-.66 2.71-.66 1.63 0 2.92.68t2.04 1.99q.75 1.31.75 3.2v5.98q0 .36-.26.62-.25.25-.62.25m-9.89 0q-.41 0-.65-.24-.25-.24-.25-.63v-10.81q0-.42.25-.66.24-.24.65-.24.39 0 .63.24.25.24.25.66v10.81q0 .39-.25.63-.24.24-.63.24" paint-order="stroke"></path><rect width="11.67" height="17.96" x="-5.83" y="-8.98" fill="none" rx="0" ry="0" transform="translate(521.46 72.14)"></rect><path fill="#fff" d="m86.794 8.945-.082-.043-.093-.044a15.616 11.66 0 0 0-7.843-1.436c-2.529 0-5.244.322-8.391.697l-.186.017c-7.4.87-16.083 5.22-21.595 10.824-4.685 4.75-7.296 13.748-8.193 17.402l-.198.8-8.682-1.827-1.818.949-11.724 14.095 19.578 5.012.583 2.323-3.636 17.446 3.694.139 13.123-12.007.443-2.22 4.615 2.333 14.008-12.356-.28-1.8-1.958-1.21 1.235-.522c3.462-1.488 8.391-3.864 12.249-6.744 5.78-4.315 9.66-10.824 10.372-17.419q.116-1 .116-1.984c0-6.508-3.53-11.372-5.337-12.425m-4.895 29.992a12.82 9.571 0 0 1-5.43 1.871c-2.192.348-4.616.366-7.11.052a26.804 20.012 0 0 1-7.645-1.914 29.135 21.753 0 0 1-7.109-3.81 25.639 19.142 0 0 1-4.358-4.143 19.812 14.792 0 0 1-2.261-4.272q-.583-2.105-.105-4.002.222-.835.653-1.627.617-.783 1.282-1.48c4.848-4.916 12.19-8.814 18.798-10.084l-.91.218-1.235.348a9.323 6.96 0 0 0-1.398.513 6.992 5.22 0 0 0-2.855 2.384 8.74 6.526 0 0 0-.653 3.324q.233 1.844 1.631 3.802a20.977 15.662 0 0 0 3.87 3.794 24.473 18.272 0 0 0 5.419 2.976 22.143 16.532 0 0 0 5.803 1.6c1.888.296 3.73.349 5.385.148a9.323 6.96 0 0 0 4.288-1.357 7.342 5.482 0 0 0 2.366-2.567 36.943 27.582 0 0 1-8.426 14.218M65.56 47.865l3.147 1.966.116.783-3.915-2.419a185.299 138.346 0 0 1-4.895 1.906q-1.608.6-3.531.73-1.935.131-3.986-.19a16.316 12.181 0 0 1-9.626-4.83q-.816-.905-1.305-1.827a10.489 7.83 0 0 1-.641-1.862 9.323 6.96 0 0 1 0-1.792l.233-1.131-10.232-2.176.897-.47 9.58 2.019.5-2.001c.35-1.453.98-3.75 1.9-6.282q-.023.435 0 .861.093 1.514.804 3.098.711 1.575 2.063 3.14 1.352 1.567 3.321 2.994a25.639 19.142 0 0 0 6.096 3.289 29.779 29.779 0 0 0 6.619 1.723c2.203.304 4.347.348 6.328.104q1.981-.235 3.718-.844a82.315 82.315 0 0 1-4.08 1.88zM50.643 59.202v.07l-.722 3.541L37.544 74.15l-1.27-.052.023-.07L48.51 62.805l2.238-11.137 1.422-.017-1.515 7.491zm-10.955-9.571a5.827 4.35 0 0 0 1.05 1.862 7.692 5.743 0 0 0 2.831 1.88q.886.347 1.841.522-1.351.539-2.727 1.044c-.99.348-2.074.748-2.855.818l-.175.852h-.023l-.21.044c-.116-.026-.116-.035-.128-.044l-.058-.078-.035-.522v-1.61a75.91 75.91 0 0 1 .443-5.673q-.047.453.058.896M88.763 13.47v.313q-.035.47-.291.87c-.186.261-.548.566-.792.679-.234.113-1.003.383-1.632.435q-.944.07-2.028-.13a9.79 7.309 0 0 1-4.184-1.776 8.158 6.09 0 0 1-1.456-1.41q-.536-.73-.665-1.4a3.496 2.61 0 0 1 .152-1.236q.291-.557 1.002-.905a3.496 2.61 0 0 1 1.142-.33c2.18.113 4.08.513 5.885 1.253.688.4 1.842 1.696 2.844 3.654"></path><path fill="#fff" d="M42.951 55.628c-1.281 1.305-1.713 3.071-2.424 4.655q-.932 2.132-1.934 4.246c-1.259 2.61-2.832 5.952-5.524 7.805q.338-.696.804-1.34c.35-.496-.047-1.645-.816-1.053-3.076 2.323-5.36 5.343-8.286 7.814-1.666 1.41-3.438 2.697-5.186 4.028q1.05-1.696 2.028-3.454c1.375-2.48 2.447-5.081 3.87-7.544a47.781 35.674 0 0 1 10.767-11.59c.49-.348.338-1.496-.466-1.348-.78.13-1.538.487-2.319.713 1.457-1.348 3.217-2.793 5.035-3.089.373-.06.606-.652.081-.66-2.762-.044-5.477 2.592-7.318 4.097-.315.261-.35 1.036.186 1.14q.664.113 1.27.052a52.443 39.154 0 0 0-8.041 8.988c-1.538 2.376-2.564 4.986-3.88 7.457-1.574 2.932-3.38 5.769-5.198 8.588-.432.679.606 1.784 1.258 1.01 2.4-2.802 5.769-4.82 8.66-7.196 2.19-1.793 3.961-3.933 5.978-5.873l-.082.687c-.012.365.385.818.84.609 3.367-1.566 5.255-4.96 6.805-7.866a139.848 104.412 0 0 0 4.743-10.641c.198-.54-.582-.522-.85-.226"></path></svg></svg>